<mxfile host="65bd71144e">
    <diagram id="6a731a19-8d31-9384-78a2-239565b7b9f0" name="NPM包分析">
        <mxGraphModel dx="1069" dy="476" grid="1" gridSize="10" guides="1" tooltips="1" connect="1" arrows="1" fold="1" page="1" pageScale="1" pageWidth="1169" pageHeight="827" background="none" math="0" shadow="0">
            <root>
                <mxCell id="0"/>
                <mxCell id="1" parent="0"/>
                <mxCell id="2" value="核心框架" style="swimlane;fontStyle=1;align=center;verticalAlign=top;childLayout=stackLayout;horizontal=1;startSize=26;horizontalStack=0;resizeParent=1;resizeParentMax=0;resizeLast=0;collapsible=1;marginBottom=0;fillColor=#dae8fc;strokeColor=#6c8ebf;" parent="1" vertex="1">
                    <mxGeometry x="40" y="40" width="240" height="130" as="geometry"/>
                </mxCell>
                <mxCell id="3" value="+ koa@3.0.0: 轻量级 Web 框架&#xa;+ koa-router@13.0.1: Koa 路由中间件&#xa;+ koa-static@5.0.0: 静态文件服务中间件&#xa;+ koa-swig@2.2.1: Swig 模板引擎集成&#xa;+ koa2-connect-history-api-fallback@0.1.3:&#xa;  SPA 前端路由支持" style="text;strokeColor=none;fillColor=none;align=left;verticalAlign=top;spacingLeft=4;spacingRight=4;overflow=hidden;rotatable=0;points=[[0,0.5],[1,0.5]];portConstraint=eastwest;" parent="2" vertex="1">
                    <mxGeometry y="26" width="240" height="104" as="geometry"/>
                </mxCell>
                <mxCell id="4" value="依赖注入" style="swimlane;fontStyle=1;align=center;verticalAlign=top;childLayout=stackLayout;horizontal=1;startSize=26;horizontalStack=0;resizeParent=1;resizeParentMax=0;resizeLast=0;collapsible=1;marginBottom=0;fillColor=#d5e8d4;strokeColor=#82b366;" parent="1" vertex="1">
                    <mxGeometry x="320" y="40" width="240" height="70" as="geometry"/>
                </mxCell>
                <mxCell id="5" value="+ awilix@12.0.5: 依赖注入容器&#xa;+ awilix-koa@11.1.0: Awilix 与 Koa 集成" style="text;strokeColor=none;fillColor=none;align=left;verticalAlign=top;spacingLeft=4;spacingRight=4;overflow=hidden;rotatable=0;points=[[0,0.5],[1,0.5]];portConstraint=eastwest;" parent="4" vertex="1">
                    <mxGeometry y="26" width="240" height="44" as="geometry"/>
                </mxCell>
                <mxCell id="6" value="工具库" style="swimlane;fontStyle=1;align=center;verticalAlign=top;childLayout=stackLayout;horizontal=1;startSize=26;horizontalStack=0;resizeParent=1;resizeParentMax=0;resizeLast=0;collapsible=1;marginBottom=0;fillColor=#ffe6cc;strokeColor=#d79b00;" parent="1" vertex="1">
                    <mxGeometry x="600" y="40" width="240" height="70" as="geometry"/>
                </mxCell>
                <mxCell id="7" value="+ lodash@4.17.21: 实用工具库&#xa;+ co@4.6.0: Generator 函数执行器" style="text;strokeColor=none;fillColor=none;align=left;verticalAlign=top;spacingLeft=4;spacingRight=4;overflow=hidden;rotatable=0;points=[[0,0.5],[1,0.5]];portConstraint=eastwest;" parent="6" vertex="1">
                    <mxGeometry y="26" width="240" height="44" as="geometry"/>
                </mxCell>
                <mxCell id="8" value="TypeScript 支持" style="swimlane;fontStyle=1;align=center;verticalAlign=top;childLayout=stackLayout;horizontal=1;startSize=26;horizontalStack=0;resizeParent=1;resizeParentMax=0;resizeLast=0;collapsible=1;marginBottom=0;fillColor=#fff2cc;strokeColor=#d6b656;" parent="1" vertex="1">
                    <mxGeometry x="40" y="200" width="240" height="130" as="geometry"/>
                </mxCell>
                <mxCell id="9" value="+ typescript@5.8.3: TypeScript 编译器&#xa;+ ts-node@10.9.2: 直接运行 TS 文件&#xa;+ ts-node-dev@2.0.0: 开发环境热重载&#xa;+ module-alias@2.2.3: 模块路径别名&#xa;+ @types/*: 各种库的类型定义" style="text;strokeColor=none;fillColor=none;align=left;verticalAlign=top;spacingLeft=4;spacingRight=4;overflow=hidden;rotatable=0;points=[[0,0.5],[1,0.5]];portConstraint=eastwest;" parent="8" vertex="1">
                    <mxGeometry y="26" width="240" height="104" as="geometry"/>
                </mxCell>
                <mxCell id="10" value="进程管理" style="swimlane;fontStyle=1;align=center;verticalAlign=top;childLayout=stackLayout;horizontal=1;startSize=26;horizontalStack=0;resizeParent=1;resizeParentMax=0;resizeLast=0;collapsible=1;marginBottom=0;fillColor=#f8cecc;strokeColor=#b85450;" parent="1" vertex="1">
                    <mxGeometry x="320" y="200" width="240" height="70" as="geometry"/>
                </mxCell>
                <mxCell id="11" value="+ pm2@6.0.8: Node.js 进程管理器&#xa;(用于生产环境部署和多核心利用)" style="text;strokeColor=none;fillColor=none;align=left;verticalAlign=top;spacingLeft=4;spacingRight=4;overflow=hidden;rotatable=0;points=[[0,0.5],[1,0.5]];portConstraint=eastwest;" parent="10" vertex="1">
                    <mxGeometry y="26" width="240" height="44" as="geometry"/>
                </mxCell>
                <mxCell id="12" value="可替代方案" style="swimlane;fontStyle=1;align=center;verticalAlign=top;childLayout=stackLayout;horizontal=1;startSize=26;horizontalStack=0;resizeParent=1;resizeParentMax=0;resizeLast=0;collapsible=1;marginBottom=0;fillColor=#e1d5e7;strokeColor=#9673a6;" parent="1" vertex="1">
                    <mxGeometry x="600" y="200" width="530" height="370" as="geometry"/>
                </mxCell>
                <mxCell id="13" value="核心框架替代：&#xa;- koa → express: 更成熟的框架，生态更丰富&#xa;- koa → fastify: 更高性能的框架&#xa;- koa-router → @koa/router: 官方维护的路由中间件&#xa;- koa-swig → koa-views + nunjucks/ejs: 更现代的模板引擎&#xa;&#xa;依赖注入替代：&#xa;- awilix → inversify: 另一个流行的 TypeScript 依赖注入框架&#xa;- awilix → tsyringe: 微软开发的依赖注入容器&#xa;&#xa;工具库替代：&#xa;- lodash → ramda: 函数式编程风格的工具库&#xa;- lodash → underscore: 更轻量的工具库&#xa;- co → async/await: 原生 JavaScript 异步处理&#xa;&#xa;TypeScript 支持替代：&#xa;- ts-node-dev → nodemon + ts-node: 分离关注点&#xa;- module-alias → tsconfig-paths: 使用 TypeScript 的路径映射&#xa;&#xa;进程管理替代：&#xa;- pm2 → forever: 更简单的进程管理器&#xa;- pm2 → nodemon (开发环境): 更简单的开发环境工具&#xa;- pm2 → docker + kubernetes: 容器化部署" style="text;strokeColor=none;fillColor=none;align=left;verticalAlign=top;spacingLeft=4;spacingRight=4;overflow=hidden;rotatable=0;points=[[0,0.5],[1,0.5]];portConstraint=eastwest;" parent="12" vertex="1">
                    <mxGeometry y="26" width="530" height="344" as="geometry"/>
                </mxCell>
                <mxCell id="14" value="依赖关系图" style="swimlane;fontStyle=1;align=center;verticalAlign=top;childLayout=stackLayout;horizontal=1;startSize=26;horizontalStack=0;resizeParent=1;resizeParentMax=0;resizeLast=0;collapsible=1;marginBottom=0;fillColor=#f5f5f5;strokeColor=#666666;fontColor=#333333;" parent="1" vertex="1">
                    <mxGeometry x="40" y="360" width="530" height="180" as="geometry"/>
                </mxCell>
                <mxCell id="15" value="app.ts&#xa;  ├── koa (Web 服务器)&#xa;  ├── awilix (依赖注入容器)&#xa;  ├── awilix-koa (将 awilix 与 koa 集成)&#xa;  ├── koa-router (路由)&#xa;  ├── koa-static (静态文件)&#xa;  ├── koa-swig (模板渲染)&#xa;  ├── co (用于 koa-swig 的 Generator 支持)&#xa;  └── koa2-connect-history-api-fallback (SPA 支持)" style="text;strokeColor=none;fillColor=none;align=left;verticalAlign=top;spacingLeft=4;spacingRight=4;overflow=hidden;rotatable=0;points=[[0,0.5],[1,0.5]];portConstraint=eastwest;" parent="14" vertex="1">
                    <mxGeometry y="26" width="530" height="154" as="geometry"/>
                </mxCell>
                <mxCell id="16" value="" style="endArrow=classic;html=1;exitX=1;exitY=0.5;exitDx=0;exitDy=0;entryX=0;entryY=0.5;entryDx=0;entryDy=0;" parent="1" source="3" target="5" edge="1">
                    <mxGeometry width="50" height="50" relative="1" as="geometry">
                        <mxPoint x="560" y="450" as="sourcePoint"/>
                        <mxPoint x="610" y="400" as="targetPoint"/>
                    </mxGeometry>
                </mxCell>
                <mxCell id="17" value="" style="endArrow=classic;html=1;exitX=1;exitY=0.5;exitDx=0;exitDy=0;entryX=0;entryY=0.5;entryDx=0;entryDy=0;" parent="1" source="5" target="7" edge="1">
                    <mxGeometry width="50" height="50" relative="1" as="geometry">
                        <mxPoint x="560" y="450" as="sourcePoint"/>
                        <mxPoint x="610" y="400" as="targetPoint"/>
                    </mxGeometry>
                </mxCell>
                <mxCell id="18" value="" style="endArrow=classic;html=1;exitX=0.5;exitY=1;exitDx=0;exitDy=0;entryX=0.5;entryY=0;entryDx=0;entryDy=0;" parent="1" source="2" target="8" edge="1">
                    <mxGeometry width="50" height="50" relative="1" as="geometry">
                        <mxPoint x="560" y="450" as="sourcePoint"/>
                        <mxPoint x="610" y="400" as="targetPoint"/>
                    </mxGeometry>
                </mxCell>
                <mxCell id="19" value="" style="endArrow=classic;html=1;exitX=0.5;exitY=1;exitDx=0;exitDy=0;entryX=0.5;entryY=0;entryDx=0;entryDy=0;" parent="1" source="4" target="10" edge="1">
                    <mxGeometry width="50" height="50" relative="1" as="geometry">
                        <mxPoint x="560" y="450" as="sourcePoint"/>
                        <mxPoint x="610" y="400" as="targetPoint"/>
                    </mxGeometry>
                </mxCell>
            </root>
        </mxGraphModel>
    </diagram>
</mxfile>